<?xml version="1.0" encoding="utf-8"?>
<!-- Generator: Adobe Illustrator 27.1.1, SVG Export Plug-In . SVG Version: 6.00 Build 0)  -->
<svg version="1.1" id="Ebene_1" xmlns="http://www.w3.org/2000/svg" xmlns:xlink="http://www.w3.org/1999/xlink" x="0px" y="0px"
	 viewBox="0 0 446.9 150" style="enable-background:new 0 0 446.9 150;" xml:space="preserve">
<g>
	<g>
		<g>
			<path d="M322.43,111.09h11.72l-19.87-27.88l18.87-19.66h-12.08l-19.44,20.59V63.55h-9.94v47.53h9.94V96l5.79-6.29L322.43,111.09z
				 M272.51,111.09h9.94V63.55h-9.94V111.09z M225,93.86c0.57,13.44,10.72,18.01,20.94,18.08c10.79,0.07,19.66-5.5,19.66-14.51
				c0-7.79-5.5-11.87-13.65-13.65l-7.86-1.86c-4.29-0.86-7.15-2.64-7.15-6c0-3.79,4-5.72,8.29-5.72c5.29,0,9.36,3.43,9.72,8.43
				h10.58c-0.93-10.15-9.29-15.94-20.3-15.94c-10.44,0-18.66,4.65-18.66,13.87c0,6.79,5,11.22,13.51,13.22l7.29,1.79
				c3.5,0.79,7.79,1.79,7.79,6.43c0,4-4.72,6.29-9.08,6.29c-5.65,0-10.29-3.5-10.36-10.44H225z M198.88,111.95
				c12.87,0,20.01-7.29,20.01-19.51V63.55h-9.94v28.88c0,7.29-3.57,11.65-9.72,11.65h-0.57c-6.22,0-9.94-4.36-9.94-11.65V63.55
				h-9.94v28.88C178.8,104.65,185.95,111.95,198.88,111.95 M116.72,63.55v47.53h9.72V84.21c0-3.43-0.29-6.86-0.79-11.37l1.14-0.14
				c0.93,4.57,1.57,6.93,2.72,10.36l9.01,28.02h9.15l9.08-28.02c0.79-2.5,1.79-6.08,2.57-10.36l1.22,0.14
				c-0.5,4.43-0.71,7.65-0.71,11.65v26.59h9.72V63.55h-14.58l-8.22,24.88c-1.36,3.93-2.43,7.79-3.22,11.65h-0.86
				c-0.71-3.86-1.72-7.36-3.15-11.65l-8.29-24.88H116.72z"/>
		</g>
		<g>
			<path d="M421.95,39.74V27.38h22.23V19.8h-22.23V8.22h24.59V0.21h-34.53v47.53h34.88v-8.01H421.95z M360.57,0.21l17.44,47.53
				h11.87l17.37-47.53h-10.44l-8.65,24.52c-1.36,3.86-2.86,8.86-3.65,13.15h-1.07c-0.93-4.36-2.36-9.22-3.65-13.08l-8.72-24.59
				H360.57z M345.99,47.75h9.94V0.21h-9.94V47.75z M341.48,0.21h-40.17v8.01h15.15v39.53h9.94V8.22h15.08V0.21z M276.17,29.02
				l4.57-13.44c0.71-2.36,1.22-4,1.5-6.36h1.14c0.43,2.36,0.93,4,1.72,6.36l4.86,13.44H276.17z M296.4,47.75h10.29L288.97,0.21
				h-12.29L259.8,47.75h10.22l4.15-11.65h17.94L296.4,47.75z M245.35,47.75h9.94V0.21h-9.94V47.75z M240.84,0.21h-40.17v8.01h15.15
				v39.53h9.94V8.22h15.08V0.21z M186.31,47.75h9.94V0.21h-9.94V47.75z M135.84,0.21v47.53h9.58V22.16c0-3.36-0.36-6.79-0.79-9.22
				l1-0.21c1.22,3.15,2.43,5.65,4.79,9.29l16.58,25.73h10.01V0.21h-9.58l0.07,26.02c0,2.64,0.36,5.72,0.86,8.36l-1.07,0.29
				c-1.72-4.07-3-6.43-5.43-10.29L146.14,0.21H135.84z M116.72,47.75h9.94V0.21h-9.94V47.75z"/>
		</g>
	</g>
	<rect x="38.91" y="77.82" width="13.76" height="13.77"/>
	<rect x="38.91" y="58.37" width="13.76" height="13.77"/>
	<rect x="38.91" y="38.91" width="13.76" height="13.77"/>
	<rect x="38.91" y="19.46" width="13.76" height="13.77"/>
	<rect x="38.91" y="0" width="13.76" height="13.77"/>
	<rect x="77.82" y="77.82" width="13.76" height="13.77"/>
	<rect x="77.82" y="58.37" width="13.76" height="13.77"/>
	<rect x="77.82" y="38.91" width="13.76" height="13.77"/>
	<rect x="77.82" y="19.46" width="13.76" height="13.77"/>
	<rect x="77.82" y="97.32" width="13.76" height="13.77"/>
	<rect x="0" y="77.82" width="13.76" height="13.77"/>
	<rect x="0" y="58.37" width="13.76" height="13.76"/>
	<rect x="0" y="38.91" width="13.76" height="13.77"/>
	<rect x="0" y="19.46" width="13.76" height="13.77"/>
	<rect x="0" y="97.32" width="13.76" height="13.77"/>
	<rect x="58.37" y="116.78" width="13.76" height="13.77"/>
	<rect x="58.37" y="97.32" width="13.76" height="13.77"/>
	<rect x="58.37" y="77.87" width="13.76" height="13.77"/>
	<rect x="58.37" y="58.41" width="13.76" height="13.77"/>
	<rect x="58.37" y="38.96" width="13.76" height="13.77"/>
	<rect x="58.37" y="136.23" width="13.76" height="13.77"/>
</g>
</svg>
