<?xml version="1.0" encoding="utf-8"?>
<!-- Generator: Adobe Illustrator 25.2.1, SVG Export Plug-In . SVG Version: 6.00 Build 0)  -->
<svg version="1.1" id="Ebene_1" xmlns="http://www.w3.org/2000/svg" xmlns:xlink="http://www.w3.org/1999/xlink" x="0px" y="0px"
	 viewBox="0 0 300 200" style="enable-background:new 0 0 300 200;" xml:space="preserve">
<g>
	<path d="M177.4,76.8c0,2.7,0.8,4.8,2.3,6.3c1.4,1.4,3.5,2.3,6.2,2.7l3.9,0.5c1.5,0.2,2.2,0.5,2.8,1.1c0.7,0.6,1,1.6,1,2.7
		c0,2.6-2,4-5.7,4c-3,0-5.7-0.7-7.8-2.7l-4.1,4.1c3.2,3.2,6.9,4.3,11.8,4.3c6.7,0,11.9-3.5,11.9-9.8c0-2.8-0.8-5.2-2.5-6.8
		c-1.4-1.3-3.2-2.1-6.2-2.5l-3.8-0.5c-1.3-0.2-2.4-0.7-3-1.3c-0.7-0.6-0.9-1.5-0.9-2.3c0-2.2,1.6-4.1,5-4.1c2.1,0,4.6,0.3,6.6,2.2
		l4-3.9c-2.8-2.7-6-3.8-10.4-3.8C181.7,67,177.4,71,177.4,76.8z"/>
	<polygon points="268.3,80.7 274.4,92.9 278.7,92.9 284.8,80.7 284.8,99.5 291.1,99.5 291.1,67.3 284.9,67.3 276.6,84.7 268.2,67.3 
		262,67.3 262,99.5 268.3,99.5 	"/>
	<polygon points="226.5,72.9 226.5,67.3 205.3,67.3 205.3,99.5 226.5,99.5 226.5,93.9 211.6,93.9 211.6,86.1 224.3,86.1 224.3,80.5 
		211.6,80.5 211.6,72.9 	"/>
	<path d="M255.4,88.5V67.3h-6.2v20.9c0,3.7-2.2,5.9-5.6,5.9c-3.4,0-5.6-2.2-5.6-5.9V67.3h-6.3v21.2c0,6.8,5.2,11.3,11.8,11.3
		C250.2,99.8,255.4,95.3,255.4,88.5z"/>
	<polygon points="129.8,92.9 135.9,80.7 135.9,99.5 142.2,99.5 142.2,67.3 136,67.3 127.7,84.7 119.2,67.3 113,67.3 113,99.5 
		119.3,99.5 119.3,80.7 125.5,92.9 	"/>
	<path d="M172.5,88.5V67.3h-6.2v20.9c0,3.7-2.2,5.9-5.6,5.9c-3.4,0-5.6-2.2-5.6-5.9V67.3h-6.3v21.2c0,6.8,5.2,11.3,11.8,11.3
		C167.2,99.8,172.5,95.3,172.5,88.5z"/>
</g>
<polygon points="291.6,112.2 268.5,112.2 268.5,117.8 276.9,117.8 276.9,144.4 283.2,144.4 283.2,117.8 291.6,117.8 "/>
<path d="M266.1,134.9c0-2.8-0.8-5.2-2.5-6.8c-1.4-1.3-3.2-2.1-6.2-2.5l-3.8-0.5c-1.3-0.2-2.4-0.7-3-1.3c-0.7-0.6-0.9-1.5-0.9-2.3
	c0-2.2,1.6-4.1,5-4.1c2.1,0,4.6,0.3,6.6,2.2l4-3.9c-2.8-2.7-6-3.8-10.4-3.8c-7,0-11.2,4-11.2,9.8c0,2.7,0.8,4.8,2.3,6.3
	c1.4,1.4,3.5,2.3,6.2,2.7l3.9,0.5c1.5,0.2,2.2,0.5,2.8,1.1c0.7,0.6,1,1.6,1,2.7c0,2.6-2,4-5.7,4c-3,0-5.7-0.7-7.8-2.7l-4.1,4.1
	c3.2,3.2,6.9,4.3,11.8,4.3C260.9,144.6,266.1,141.1,266.1,134.9z"/>
<path d="M221.8,131.5h4.5l6.3,12.8h7.3l-7.2-13.9c3.1-1.1,5.9-3.9,5.9-8.5c0-5.4-3.9-9.9-10.4-9.9h-12.6v32.2h6.3V131.5z
	 M221.8,117.8h5.9c2.8,0,4.6,1.8,4.6,4.3c0,2.5-1.8,4.3-4.6,4.3h-5.9V117.8z"/>
<path d="M209.6,128.3c0-5.6,0-9.6-3.2-12.8c-2.3-2.3-5-3.5-8.7-3.5c-3.7,0-6.5,1.3-8.7,3.5c-3.3,3.3-3.2,7.3-3.2,12.8
	c0,5.6-0.1,9.6,3.2,12.8c2.3,2.3,5.1,3.5,8.7,3.5c3.7,0,6.4-1.3,8.7-3.5C209.6,137.9,209.6,133.8,209.6,128.3z M201.7,137.3
	c-0.9,1-2.3,1.7-4,1.7c-1.7,0-3.2-0.7-4.1-1.7c-1.2-1.4-1.5-2.8-1.5-9c0-6.2,0.3-7.7,1.5-9c0.9-1,2.4-1.7,4.1-1.7
	c1.7,0,3.1,0.7,4,1.7c1.2,1.4,1.6,2.8,1.6,9C203.3,134.5,202.9,136,201.7,137.3z"/>
<path d="M63.7,144.4h6.6l1.9-5.7h11.4l1.9,5.7h6.6l-11.8-32.2h-4.9L63.7,144.4z M81.9,133.4h-8l4.1-11.7L81.9,133.4z"/>
<polygon points="173.5,125.3 162.6,125.3 162.6,112.2 156.3,112.2 156.3,144.4 162.6,144.4 162.6,130.9 173.5,130.9 173.5,144.4 
	179.8,144.4 179.8,112.2 173.5,112.2 "/>
<path d="M147.1,115.2c-2.1-2.1-5.2-3.1-8.5-3.1H127v32.2h11.6c3.3,0,6.4-0.9,8.5-3.1c3.6-3.6,3.3-8.3,3.3-13.2
	C150.4,123.3,150.7,118.9,147.1,115.2z M142.7,136.8c-1.1,1.3-2.5,2-4.7,2h-4.7v-21h4.7c2.2,0,3.6,0.7,4.7,2
	c1.2,1.4,1.4,3.5,1.4,8.4C144.1,133,143.9,135.3,142.7,136.8z"/>
<path d="M60.5,122c0-5.4-3.9-9.9-10.4-9.9H37.5v32.2h6.3v-12.8h4.5l6.3,12.8h7.3l-7.2-13.9C57.8,129.3,60.5,126.5,60.5,122z
	 M49.7,126.3h-5.9v-8.5h5.9c2.8,0,4.6,1.8,4.6,4.3C54.2,124.5,52.4,126.3,49.7,126.3z"/>
<path d="M32.1,135.1c0-4.3-2.5-6.3-4.4-7.2c1.6-0.8,4-3.1,4-6.6c0-5.5-3.7-9-9.9-9H8.8v32.2h13.5C28,144.4,32.1,141.1,32.1,135.1z
	 M15.1,117.8h6.2c2.7,0,4.2,1.5,4.2,3.7c0,2.2-1.5,3.7-4.2,3.7h-6.2V117.8z M15.1,138.8v-7.9h6.6c2.8,0,4.2,1.8,4.2,3.9
	s-1.4,4-4.2,4H15.1z"/>
<polygon points="114,131.9 101.2,112.2 95.6,112.2 95.6,144.4 101.9,144.4 101.9,124.6 114.6,144.4 120.2,144.4 120.2,112.2 
	114,112.2 "/>
</svg>
